<?xml version="1.0" encoding="utf-8"?>
<!-- Generator: Adobe Illustrator 22.0.0, SVG Export Plug-In . SVG Version: 6.00 Build 0)  -->
<svg version="1.1" id="Layer_1" xmlns="http://www.w3.org/2000/svg" xmlns:xlink="http://www.w3.org/1999/xlink" x="0px" y="0px"
	 viewBox="0 0 184.1 77.1" style="enable-background:new 0 0 184.1 77.1;" xml:space="preserve">
<style type="text/css">
	.st0{fill:#101010;}
	.st1{font-family:'Frutiger-Roman';}
	.st2{font-size:30px;}
	.st3{clip-path:url(#SVGID_2_);fill:none;stroke:#EA1947;stroke-width:2;}
</style>
<polygon class="st0" points="20.2,17 14.4,35.5 14.4,35.5 8.6,17 0.7,17 0.7,41.4 5.4,41.4 5.4,21.3 5.5,21.3 12.1,41.4 16.7,41.4 
	23.3,21.3 23.4,21.3 23.4,41.4 28.1,41.4 28.1,17 "/>
<rect x="43.8" y="17" class="st0" width="4.9" height="24.4"/>
<g>
	<path class="st0" d="M77.6,21.5c-0.8-0.3-1.6-0.6-2.4-0.8c-0.8-0.2-1.7-0.3-2.6-0.3c-0.4,0-0.9,0.1-1.3,0.2
		c-0.5,0.1-0.9,0.3-1.2,0.5c-0.4,0.3-0.7,0.6-0.9,1c-0.2,0.4-0.4,1-0.4,1.6c0,0.7,0.3,1.3,0.8,1.7c0.5,0.4,1.2,0.8,2,1.1
		c0.8,0.3,1.7,0.7,2.6,1s1.8,0.8,2.6,1.3c0.8,0.6,1.5,1.3,2,2.1c0.5,0.9,0.8,2,0.8,3.3c0,1.3-0.2,2.5-0.7,3.4s-1.2,1.7-2,2.3
		s-1.8,1-2.9,1.3s-2.3,0.4-3.5,0.4c-0.7,0-1.3,0-1.8-0.1c-0.5,0-1-0.1-1.5-0.2c-0.5-0.1-0.9-0.2-1.4-0.3s-1-0.2-1.6-0.4l0.5-4.4
		c0.8,0.5,1.7,0.8,2.7,1.1c0.9,0.3,1.9,0.4,2.9,0.4c0.5,0,1-0.1,1.5-0.2c0.5-0.1,1-0.3,1.4-0.6s0.8-0.6,1-1c0.3-0.4,0.4-0.9,0.4-1.4
		c0-0.8-0.3-1.4-0.8-1.9s-1.2-0.9-2-1.2c-0.8-0.3-1.7-0.7-2.6-1s-1.8-0.8-2.6-1.3c-0.8-0.5-1.5-1.2-2-2.1c-0.5-0.8-0.8-1.9-0.8-3.3
		s0.2-2.5,0.7-3.5s1.1-1.7,1.9-2.3c0.8-0.6,1.7-1,2.7-1.3s2.1-0.4,3.1-0.4c2.1,0,4.1,0.3,5.8,0.9L77.6,21.5z"/>
	<path class="st0" d="M112.2,41.1c-0.9,0.2-1.8,0.4-2.7,0.5c-0.9,0.2-1.9,0.2-2.8,0.2c-2,0-3.8-0.3-5.4-0.8s-3.1-1.3-4.2-2.3
		c-1.2-1-2.1-2.3-2.7-3.8c-0.7-1.5-1-3.3-1-5.4s0.3-4,0.9-5.6s1.5-3,2.7-4.1s2.6-1.9,4.2-2.5c1.7-0.6,3.5-0.9,5.6-0.9
		c0.8,0,1.7,0.1,2.7,0.2c1,0.2,1.9,0.4,2.8,0.8l-0.3,4.1c-0.9-0.5-1.8-0.9-2.7-1c-0.9-0.2-1.7-0.2-2.6-0.2c-1.3,0-2.4,0.2-3.4,0.7
		s-1.9,1.1-2.6,1.9s-1.2,1.7-1.6,2.8c-0.4,1.1-0.6,2.2-0.6,3.5c0,1.2,0.2,2.4,0.6,3.4c0.4,1.1,0.9,2,1.6,2.8s1.6,1.4,2.6,1.8
		c1,0.4,2.2,0.7,3.5,0.7c1,0,2-0.1,3-0.3s1.8-0.4,2.4-0.7V41.1z"/>
</g>
<polygon class="st0" points="126.3,17 131.2,17 131.2,26.9 141,26.9 141,17 145.9,17 145.9,41.4 141,41.4 141,30.7 131.2,30.7 
	131.2,41.4 126.3,41.4 "/>
<g>
	<text transform="matrix(1 0 0 1 183.9355 41.4335)" class="st0 st1 st2"> </text>
</g>
<polygon class="st0" points="15.8,54.5 8.8,73.4 2.1,54.5 -0.1,54.5 7.7,75.4 9.9,75.4 17.8,54.5 "/>
<g>
	<path class="st0" d="M33,73.6h1.7c6.4,0.1,9.7-2.8,9.8-8.8c0-3.2-0.9-5.4-2.5-6.7c-1.6-1.2-3.6-1.9-6-1.8h-3V73.6z M30.9,54.5h5.2
		c3.7,0,6.4,1,8.1,2.9c1.6,1.9,2.4,4.4,2.4,7.5c0,3.7-1.2,6.4-3.4,8.1c-2.2,1.6-5.1,2.4-8.6,2.4h-3.7C30.9,75.4,30.9,54.5,30.9,54.5
		z"/>
	<path class="st0" d="M94.8,65.9h-4.9v-1.8h6.9v10.4c-2.1,0.9-4.2,1.3-6.5,1.3c-3.3,0-5.9-1-7.7-3c-1.9-1.9-2.8-4.5-2.8-7.8
		c0-3.2,1-5.8,2.8-7.8c1.9-2,4.4-3,7.7-3c0.9,0,1.8,0.1,2.9,0.2c1.1,0.2,2,0.4,2.7,0.8L95.7,57c-0.8-0.4-1.7-0.8-2.6-0.9
		c-0.9-0.1-1.8-0.2-2.8-0.2c-2.7,0-4.8,0.9-6.3,2.5c-1.5,1.7-2.2,3.8-2.2,6.5s0.7,4.8,2.2,6.5c1.4,1.7,3.5,2.5,6.3,2.5
		c0.7,0,1.5-0.1,2.4-0.2s1.6-0.3,2.1-0.6C94.8,73.1,94.8,65.9,94.8,65.9z"/>
	<path class="st0" d="M116.5,58.7c-1.2,1.8-1.7,3.9-1.7,6.2c0,2.3,0.6,4.4,1.7,6.1c1.2,1.9,3,2.8,5.4,2.9c2.5,0,4.3-1,5.4-2.9
		c1.1-1.8,1.7-3.8,1.7-6.1c0-2.3-0.6-4.4-1.7-6.2c-1.2-1.8-3-2.8-5.4-2.8C119.4,56,117.6,56.9,116.5,58.7 M114.9,57.4
		c1.5-2.1,3.8-3.2,7-3.3c3.2,0.1,5.5,1.2,7,3.3c1.5,2.1,2.2,4.6,2.2,7.6c0,3.3-0.8,5.9-2.3,7.8c-1.6,2-3.9,3-6.9,3s-5.3-1.1-6.8-3
		c-1.6-1.9-2.4-4.5-2.4-7.8C112.6,62,113.4,59.5,114.9,57.4"/>
</g>
<polygon class="st0" points="146.8,54.5 146.8,75.4 157.4,75.4 157.4,73.6 148.8,73.6 148.8,65.6 156.6,65.6 156.6,63.8 148.8,63.8 
	148.8,56.3 157,56.3 157,54.5 "/>
<g>
	<path class="st0" d="M177.3,74c1.3,0,2.5-0.3,3.4-1.1c0.9-0.7,1.3-1.8,1.4-3.2c0-1-0.5-1.9-1.5-2.6c-0.4-0.4-0.9-0.7-1.5-1
		s-1.2-0.6-1.8-1c-0.6-0.3-1.2-0.7-1.7-1.1c-0.6-0.4-1.1-0.8-1.6-1.2c-1-0.9-1.5-1.9-1.5-3.3c0-1.7,0.7-3,2-4
		c1.2-0.9,2.8-1.4,4.7-1.4c0.5,0,1.2,0,1.9,0.1s1.5,0.3,2.2,0.6l-0.3,1.9c-1-0.5-2.3-0.8-3.8-0.8c-0.5,0-1.1,0-1.6,0.2
		c-0.5,0.1-1,0.3-1.5,0.6c-0.4,0.3-0.8,0.6-1.1,1.1s-0.4,1.1-0.4,1.7c0,0.5,0.1,1,0.4,1.4c0.3,0.4,0.6,0.8,1.1,1.1s1,0.7,1.6,1
		s1.1,0.7,1.7,1c1.3,0.6,2.4,1.4,3.3,2.3c0.5,0.4,0.8,1,1.1,1.6s0.4,1.3,0.4,2.1c0,2.1-0.8,3.6-2.2,4.5s-3,1.4-4.7,1.4
		c-2,0-3.6-0.3-4.7-0.9l0.2-2.1C173.9,73.6,175.4,74,177.3,74"/>
</g>
<g>
	<g>
		<g>
			<defs>
				<rect id="SVGID_1_" x="76.8" y="0.1" width="28.8" height="2"/>
			</defs>
			<clipPath id="SVGID_2_">
				<use xlink:href="#SVGID_1_"  style="overflow:visible;"/>
			</clipPath>
			<line class="st3" x1="76.8" y1="1.1" x2="105.6" y2="1.1"/>
		</g>
	</g>
</g>
<polygon class="st0" points="176.7,35.8 178.8,41.4 184.2,41.4 174.6,17 169.1,17 159.5,41.4 164.6,41.4 166.7,35.8 168.1,32 
	171.7,21.9 171.8,21.9 175.3,32 "/>
</svg>
